<svg width="1969" height="849" viewBox="0 0 1969 849" fill="none" xmlns="http://www.w3.org/2000/svg">
<path d="M100.017 748.845C106.314 713.096 131.695 619.842 199.409 498.026C230.907 441.362 322.02 390.841 391.388 361.93C412.487 353.136 470.616 354.456 546.885 359.703C643.777 366.37 672.39 523.789 688.357 569.525C695.808 590.87 716.982 606.674 733.871 623.627C783.721 673.664 888.541 630.147 954.284 585.778C1005.42 551.27 1070.6 467.429 1133.51 420.262C1215.79 358.575 1380.38 424.301 1433.56 457.156C1457.12 471.712 1475.99 494.337 1509.8 499.68C1619.73 517.053 1688.01 360.944 1713.52 321.76C1762.24 257.194 1804.67 187.094 1827.95 158.533C1838.64 144.666 1847.04 132.071 1868.41 100.011" stroke="#FFBF00" stroke-width="200" stroke-linecap="round"/>
</svg>
