<svg xmlns="http://www.w3.org/2000/svg" xmlns:xlink="http://www.w3.org/1999/xlink" width="855" zoomAndPan="magnify" viewBox="0 0 641.25 350.250003" height="467" preserveAspectRatio="xMidYMid meet" version="1.0"><defs><g/><clipPath id="19fbeeb115"><path d="M 0.3125 0 L 586 0 L 586 276 L 0.3125 276 Z M 0.3125 0 " clip-rule="nonzero"/></clipPath><clipPath id="3bd06a18fd"><path d="M 0.789062 0 L 163.761719 0 L 163.761719 264.496094 L 0.789062 264.496094 Z M 0.789062 0 " clip-rule="nonzero"/></clipPath><clipPath id="d265dcf8d1"><path d="M 9.167969 214.902344 C 9.71875 225.21875 11.015625 235.871094 16.757812 243.886719 C 17.753906 245.277344 18.824219 246.5 19.941406 247.585938 C 20.132812 247.78125 20.328125 247.976562 20.519531 248.164062 C 20.710938 248.363281 20.90625 248.554688 21.097656 248.742188 C 21.289062 248.941406 21.484375 249.132812 21.679688 249.320312 C 21.871094 249.519531 22.0625 249.710938 22.257812 249.902344 C 22.449219 250.097656 22.640625 250.292969 22.835938 250.480469 C 23.027344 250.675781 23.21875 250.871094 23.414062 251.058594 C 23.605469 251.253906 23.800781 251.449219 23.992188 251.636719 C 24.183594 251.832031 24.378906 252.027344 24.570312 252.214844 C 24.761719 252.414062 24.957031 252.605469 25.152344 252.792969 C 25.339844 252.992188 25.535156 253.183594 25.730469 253.371094 C 25.921875 253.570312 26.113281 253.761719 26.308594 253.953125 C 26.5 254.148438 26.691406 254.34375 26.886719 254.53125 C 27.078125 254.726562 27.269531 254.921875 27.464844 255.109375 C 27.65625 255.304688 27.851562 255.5 28.042969 255.6875 C 36.5625 264.488281 48.242188 264.488281 52.34375 264.488281 C 54.574219 264.488281 56.964844 264.375 59.636719 264.140625 L 126.335938 258.351562 C 136.941406 257.429688 148.789062 255.136719 156.242188 245.136719 C 162.566406 236.660156 163.585938 225.65625 163.171875 211.742188 C 162.949219 201.429688 161.957031 190.785156 156.320312 182.691406 C 155.277344 181.195312 154.144531 179.878906 152.957031 178.734375 C 152.765625 178.539062 152.570312 178.34375 152.378906 178.15625 C 152.1875 177.960938 151.992188 177.765625 151.800781 177.578125 C 151.609375 177.378906 151.414062 177.1875 151.21875 177 C 151.03125 176.800781 150.835938 176.609375 150.640625 176.421875 C 150.449219 176.222656 150.257812 176.03125 150.0625 175.839844 C 149.871094 175.644531 149.679688 175.449219 149.484375 175.261719 C 149.292969 175.066406 149.101562 174.871094 148.90625 174.683594 C 148.714844 174.488281 148.519531 174.292969 148.328125 174.105469 C 148.136719 173.910156 147.941406 173.714844 147.75 173.527344 C 147.558594 173.328125 147.363281 173.136719 147.167969 172.949219 C 146.980469 172.75 146.785156 172.558594 146.589844 172.371094 C 146.398438 172.171875 146.207031 171.980469 146.011719 171.789062 C 145.820312 171.59375 145.628906 171.398438 145.433594 171.210938 C 145.242188 171.015625 145.046875 170.820312 144.855469 170.632812 C 136.5 162.039062 124.964844 162.039062 120.886719 162.039062 C 118.621094 162.039062 116.171875 162.15625 113.40625 162.402344 L 97.980469 163.847656 L 99.1875 50.230469 C 99.316406 37.898438 98.296875 25.335938 90.023438 16.96875 C 89.886719 16.832031 89.75 16.699219 89.609375 16.566406 C 89.554688 16.507812 89.503906 16.449219 89.445312 16.390625 C 89.308594 16.253906 89.167969 16.121094 89.03125 15.988281 C 88.976562 15.929688 88.921875 15.871094 88.867188 15.8125 C 88.730469 15.675781 88.589844 15.542969 88.453125 15.40625 C 88.398438 15.351562 88.34375 15.292969 88.285156 15.234375 C 88.152344 15.09375 88.011719 14.960938 87.875 14.828125 C 87.816406 14.769531 87.765625 14.714844 87.707031 14.65625 C 87.570312 14.515625 87.433594 14.382812 87.292969 14.25 C 87.238281 14.191406 87.1875 14.136719 87.128906 14.078125 C 86.992188 13.9375 86.855469 13.804688 86.714844 13.671875 C 86.660156 13.613281 86.609375 13.554688 86.550781 13.5 C 86.414062 13.359375 86.277344 13.226562 86.136719 13.09375 C 86.082031 13.035156 86.03125 12.976562 85.972656 12.917969 C 85.835938 12.78125 85.695312 12.648438 85.558594 12.515625 C 85.503906 12.457031 85.453125 12.398438 85.394531 12.339844 C 85.257812 12.203125 85.117188 12.070312 84.980469 11.9375 C 84.925781 11.878906 84.871094 11.820312 84.816406 11.761719 C 84.679688 11.625 84.539062 11.488281 84.402344 11.355469 C 84.347656 11.300781 84.292969 11.242188 84.234375 11.183594 C 84.101562 11.042969 83.960938 10.910156 83.820312 10.777344 C 83.765625 10.71875 83.714844 10.664062 83.65625 10.605469 C 83.519531 10.464844 83.382812 10.332031 83.242188 10.199219 C 83.1875 10.140625 83.136719 10.082031 83.078125 10.027344 C 82.941406 9.886719 82.804688 9.753906 82.664062 9.621094 C 82.609375 9.5625 82.558594 9.503906 82.5 9.449219 C 82.363281 9.308594 82.226562 9.175781 82.085938 9.042969 C 82.03125 8.984375 81.980469 8.925781 81.921875 8.867188 C 81.785156 8.730469 81.644531 8.597656 81.507812 8.464844 C 81.453125 8.40625 81.398438 8.347656 81.34375 8.289062 C 78.222656 5.140625 74.339844 2.863281 69.804688 1.523438 C 66.339844 0.5 62.4375 0.00390625 57.878906 0.00390625 C 55.617188 0.00390625 53.175781 0.121094 50.398438 0.363281 L 37.378906 1.519531 C 26.777344 2.441406 14.933594 4.746094 7.492188 14.824219 C 1.15625 23.398438 0.332031 34.253906 1.046875 47.914062 Z M 9.167969 214.902344 " clip-rule="nonzero"/></clipPath><linearGradient x1="280.66" gradientTransform="matrix(0.289351, 0, 0, 0.289351, 0.833432, 0.00000997863)" y1="914.07996" x2="280.66" gradientUnits="userSpaceOnUse" y2="0.00994873" id="6791c1cfe5"><stop stop-opacity="1" stop-color="rgb(0.779724%, 17.248535%, 41.958618%)" offset="0"/><stop stop-opacity="1" stop-color="rgb(0.782776%, 17.312622%, 42.114258%)" offset="0.015625"/><stop stop-opacity="1" stop-color="rgb(0.788879%, 17.442322%, 42.427063%)" offset="0.03125"/><stop stop-opacity="1" stop-color="rgb(0.794983%, 17.570496%, 42.739868%)" offset="0.046875"/><stop stop-opacity="1" stop-color="rgb(0.801086%, 17.700195%, 43.052673%)" offset="0.0625"/><stop stop-opacity="1" stop-color="rgb(0.80719%, 17.828369%, 43.365479%)" offset="0.078125"/><stop stop-opacity="1" stop-color="rgb(0.813293%, 17.956543%, 43.676758%)" offset="0.09375"/><stop stop-opacity="1" stop-color="rgb(0.819397%, 18.086243%, 43.989563%)" offset="0.109375"/><stop stop-opacity="1" stop-color="rgb(0.8255%, 18.214417%, 44.302368%)" offset="0.125"/><stop stop-opacity="1" stop-color="rgb(0.831604%, 18.34259%, 44.615173%)" offset="0.140625"/><stop stop-opacity="1" stop-color="rgb(0.839233%, 18.47229%, 44.927979%)" offset="0.15625"/><stop stop-opacity="1" stop-color="rgb(0.845337%, 18.600464%, 45.239258%)" offset="0.171875"/><stop stop-opacity="1" stop-color="rgb(0.85144%, 18.730164%, 45.552063%)" offset="0.1875"/><stop stop-opacity="1" stop-color="rgb(0.857544%, 18.858337%, 45.864868%)" offset="0.203125"/><stop stop-opacity="1" stop-color="rgb(0.863647%, 18.986511%, 46.177673%)" offset="0.21875"/><stop stop-opacity="1" stop-color="rgb(0.869751%, 19.116211%, 46.490479%)" offset="0.234375"/><stop stop-opacity="1" stop-color="rgb(0.875854%, 19.244385%, 46.801758%)" offset="0.25"/><stop stop-opacity="1" stop-color="rgb(0.881958%, 19.372559%, 47.114563%)" offset="0.265625"/><stop stop-opacity="1" stop-color="rgb(0.888062%, 19.502258%, 47.427368%)" offset="0.28125"/><stop stop-opacity="1" stop-color="rgb(0.894165%, 19.630432%, 47.740173%)" offset="0.296875"/><stop stop-opacity="1" stop-color="rgb(0.901794%, 19.760132%, 48.052979%)" offset="0.3125"/><stop stop-opacity="1" stop-color="rgb(0.907898%, 19.888306%, 48.364258%)" offset="0.328125"/><stop stop-opacity="1" stop-color="rgb(0.914001%, 20.016479%, 48.677063%)" offset="0.34375"/><stop stop-opacity="1" stop-color="rgb(0.920105%, 20.146179%, 48.989868%)" offset="0.359375"/><stop stop-opacity="1" stop-color="rgb(0.926208%, 20.274353%, 49.302673%)" offset="0.375"/><stop stop-opacity="1" stop-color="rgb(0.932312%, 20.404053%, 49.615479%)" offset="0.390625"/><stop stop-opacity="1" stop-color="rgb(0.938416%, 20.532227%, 49.926758%)" offset="0.40625"/><stop stop-opacity="1" stop-color="rgb(0.944519%, 20.6604%, 50.239563%)" offset="0.421875"/><stop stop-opacity="1" stop-color="rgb(0.950623%, 20.7901%, 50.552368%)" offset="0.4375"/><stop stop-opacity="1" stop-color="rgb(0.956726%, 20.918274%, 50.865173%)" offset="0.453125"/><stop stop-opacity="1" stop-color="rgb(0.96283%, 21.046448%, 51.177979%)" offset="0.46875"/><stop stop-opacity="1" stop-color="rgb(0.970459%, 21.176147%, 51.489258%)" offset="0.484375"/><stop stop-opacity="1" stop-color="rgb(0.976562%, 21.304321%, 51.802063%)" offset="0.5"/><stop stop-opacity="1" stop-color="rgb(0.982666%, 21.434021%, 52.114868%)" offset="0.515625"/><stop stop-opacity="1" stop-color="rgb(0.98877%, 21.562195%, 52.427673%)" offset="0.53125"/><stop stop-opacity="1" stop-color="rgb(0.994873%, 21.690369%, 52.740479%)" offset="0.546875"/><stop stop-opacity="1" stop-color="rgb(1.000977%, 21.820068%, 53.051758%)" offset="0.5625"/><stop stop-opacity="1" stop-color="rgb(1.00708%, 21.948242%, 53.364563%)" offset="0.578125"/><stop stop-opacity="1" stop-color="rgb(1.013184%, 22.076416%, 53.677368%)" offset="0.59375"/><stop stop-opacity="1" stop-color="rgb(1.019287%, 22.206116%, 53.990173%)" offset="0.609375"/><stop stop-opacity="1" stop-color="rgb(1.025391%, 22.33429%, 54.302979%)" offset="0.625"/><stop stop-opacity="1" stop-color="rgb(1.03302%, 22.463989%, 54.614258%)" offset="0.640625"/><stop stop-opacity="1" stop-color="rgb(1.039124%, 22.592163%, 54.927063%)" offset="0.65625"/><stop stop-opacity="1" stop-color="rgb(1.045227%, 22.720337%, 55.239868%)" offset="0.671875"/><stop stop-opacity="1" stop-color="rgb(1.051331%, 22.850037%, 55.552673%)" offset="0.6875"/><stop stop-opacity="1" stop-color="rgb(1.057434%, 22.97821%, 55.865479%)" offset="0.703125"/><stop stop-opacity="1" stop-color="rgb(1.063538%, 23.106384%, 56.176758%)" offset="0.71875"/><stop stop-opacity="1" stop-color="rgb(1.069641%, 23.236084%, 56.489563%)" offset="0.734375"/><stop stop-opacity="1" stop-color="rgb(1.075745%, 23.364258%, 56.802368%)" offset="0.75"/><stop stop-opacity="1" stop-color="rgb(1.081848%, 23.493958%, 57.115173%)" offset="0.765625"/><stop stop-opacity="1" stop-color="rgb(1.087952%, 23.622131%, 57.426453%)" offset="0.78125"/><stop stop-opacity="1" stop-color="rgb(1.094055%, 23.750305%, 57.739258%)" offset="0.796875"/><stop stop-opacity="1" stop-color="rgb(1.101685%, 23.880005%, 58.052063%)" offset="0.8125"/><stop stop-opacity="1" stop-color="rgb(1.107788%, 24.008179%, 58.364868%)" offset="0.828125"/><stop stop-opacity="1" stop-color="rgb(1.113892%, 24.136353%, 58.677673%)" offset="0.84375"/><stop stop-opacity="1" stop-color="rgb(1.119995%, 24.266052%, 58.988953%)" offset="0.859375"/><stop stop-opacity="1" stop-color="rgb(1.126099%, 24.394226%, 59.301758%)" offset="0.875"/><stop stop-opacity="1" stop-color="rgb(1.132202%, 24.523926%, 59.614563%)" offset="0.890625"/><stop stop-opacity="1" stop-color="rgb(1.138306%, 24.6521%, 59.927368%)" offset="0.90625"/><stop stop-opacity="1" stop-color="rgb(1.144409%, 24.780273%, 60.240173%)" offset="0.921875"/><stop stop-opacity="1" stop-color="rgb(1.150513%, 24.909973%, 60.551453%)" offset="0.9375"/><stop stop-opacity="1" stop-color="rgb(1.156616%, 25.038147%, 60.864258%)" offset="0.953125"/><stop stop-opacity="1" stop-color="rgb(1.164246%, 25.166321%, 61.177063%)" offset="0.96875"/><stop stop-opacity="1" stop-color="rgb(1.170349%, 25.296021%, 61.489868%)" offset="0.984375"/><stop stop-opacity="1" stop-color="rgb(1.176453%, 25.424194%, 61.802673%)" offset="1"/></linearGradient><clipPath id="71d288b81b"><path d="M 148 110 L 585.617188 110 L 585.617188 275.648438 L 148 275.648438 Z M 148 110 " clip-rule="nonzero"/></clipPath><clipPath id="2a53406de9"><rect x="0" width="438" y="0" height="166"/></clipPath><clipPath id="ef77cfebe3"><rect x="0" width="586" y="0" height="276"/></clipPath></defs><g clip-path="url(#19fbeeb115)"><g transform="matrix(1, 0, 0, 1, 0, -0.000000000000002072)"><g clip-path="url(#ef77cfebe3)"><g clip-path="url(#3bd06a18fd)"><g clip-path="url(#d265dcf8d1)"><path fill="url(#6791c1cfe5)" d="M 0.789062 0.00390625 L 0.789062 264.488281 L 163.585938 264.488281 L 163.585938 0.00390625 Z M 0.789062 0.00390625 " fill-rule="nonzero"/></g></g><path fill="#ffbf00" d="M 23.617188 214.136719 C 24.257812 226.152344 25.953125 233.410156 30.195312 237.371094 C 30.386719 237.570312 30.574219 237.765625 30.777344 237.949219 C 30.964844 238.148438 31.15625 238.34375 31.355469 238.53125 C 31.542969 238.730469 31.734375 238.921875 31.933594 239.109375 C 32.121094 239.308594 32.3125 239.5 32.511719 239.6875 C 32.699219 239.886719 32.890625 240.082031 33.089844 240.265625 C 33.277344 240.464844 33.46875 240.660156 33.667969 240.84375 C 33.855469 241.042969 34.046875 241.238281 34.246094 241.421875 C 34.4375 241.621094 34.625 241.816406 34.828125 242 C 35.015625 242.199219 35.207031 242.394531 35.40625 242.582031 C 35.59375 242.78125 35.785156 242.972656 35.984375 243.160156 C 36.171875 243.359375 36.363281 243.550781 36.5625 243.738281 C 36.75 243.9375 36.941406 244.132812 37.140625 244.316406 C 37.328125 244.515625 37.519531 244.710938 37.71875 244.894531 C 37.90625 245.09375 38.097656 245.289062 38.296875 245.472656 C 42.199219 249.632812 48.4375 250.605469 58.386719 249.726562 L 125.082031 243.941406 C 145.015625 242.203125 149.445312 236.417969 148.707031 212.113281 C 148.453125 200.078125 146.929688 192.894531 142.761719 189.011719 C 142.570312 188.808594 142.382812 188.617188 142.179688 188.429688 C 141.992188 188.230469 141.800781 188.039062 141.601562 187.851562 C 141.414062 187.652344 141.222656 187.457031 141.023438 187.273438 C 140.835938 187.074219 140.644531 186.878906 140.445312 186.695312 C 140.257812 186.496094 140.066406 186.300781 139.867188 186.117188 C 139.679688 185.917969 139.488281 185.722656 139.289062 185.539062 C 139.101562 185.339844 138.910156 185.144531 138.710938 184.957031 C 138.519531 184.757812 138.328125 184.566406 138.128906 184.378906 C 137.941406 184.179688 137.75 183.988281 137.550781 183.800781 C 137.363281 183.601562 137.171875 183.40625 136.972656 183.222656 C 136.785156 183.023438 136.59375 182.828125 136.394531 182.644531 C 136.207031 182.445312 136.015625 182.25 135.816406 182.066406 C 135.628906 181.867188 135.4375 181.671875 135.238281 181.488281 C 135.050781 181.285156 134.859375 181.09375 134.660156 180.90625 C 130.851562 176.828125 124.613281 175.933594 114.675781 176.8125 L 83.34375 179.746094 L 84.71875 50.074219 C 84.847656 37.898438 83.546875 30.6875 79.421875 26.839844 C 79.234375 26.636719 79.042969 26.445312 78.84375 26.261719 C 78.65625 26.058594 78.464844 25.867188 78.265625 25.683594 C 78.078125 25.480469 77.882812 25.289062 77.683594 25.105469 C 77.5 24.902344 77.304688 24.710938 77.105469 24.527344 C 76.921875 24.324219 76.726562 24.132812 76.527344 23.945312 C 76.34375 23.746094 76.148438 23.554688 75.949219 23.367188 C 75.765625 23.164062 75.570312 22.972656 75.371094 22.789062 C 75.183594 22.585938 74.992188 22.394531 74.792969 22.210938 C 74.605469 22.007812 74.414062 21.816406 74.210938 21.632812 C 74.027344 21.429688 73.832031 21.238281 73.632812 21.054688 C 73.449219 20.851562 73.253906 20.660156 73.054688 20.472656 C 72.871094 20.273438 72.675781 20.082031 72.476562 19.894531 C 72.292969 19.691406 72.097656 19.503906 71.898438 19.316406 C 71.710938 19.113281 71.519531 18.921875 71.320312 18.738281 C 67.65625 14.769531 61.507812 13.90625 51.675781 14.773438 L 38.632812 15.933594 C 18.695312 17.667969 14.265625 23.746094 15.496094 47.179688 L 23.621094 214.136719 Z M 23.617188 214.136719 " fill-opacity="1" fill-rule="nonzero"/><path fill="#e38500" d="M 23.617188 214.136719 C 24.257812 226.152344 25.953125 233.410156 30.195312 237.371094 C 30.386719 237.570312 30.574219 237.765625 30.777344 237.949219 C 30.964844 238.148438 31.15625 238.34375 31.355469 238.53125 C 31.542969 238.730469 31.734375 238.921875 31.933594 239.109375 C 32.121094 239.308594 32.3125 239.5 32.511719 239.6875 C 32.699219 239.886719 32.890625 240.082031 33.089844 240.265625 C 36.992188 244.425781 43.230469 245.394531 53.175781 244.519531 L 119.871094 238.730469 C 139.804688 236.996094 144.238281 231.207031 143.496094 206.902344 C 143.242188 194.867188 141.722656 187.683594 137.550781 183.800781 C 137.363281 183.601562 137.171875 183.40625 136.972656 183.222656 C 136.785156 183.023438 136.59375 182.828125 136.394531 182.644531 C 136.207031 182.445312 136.015625 182.25 135.816406 182.066406 C 135.628906 181.867188 135.4375 181.671875 135.238281 181.488281 C 135.050781 181.285156 134.859375 181.09375 134.660156 180.90625 C 130.851562 176.828125 124.613281 175.933594 114.675781 176.8125 L 78.074219 180.242188 L 79.507812 44.867188 C 79.636719 32.691406 78.335938 25.480469 74.210938 21.632812 C 74.023438 21.429688 73.832031 21.238281 73.632812 21.054688 C 73.445312 20.851562 73.253906 20.660156 73.050781 20.472656 C 72.867188 20.273438 72.671875 20.082031 72.472656 19.894531 C 72.289062 19.691406 72.09375 19.503906 71.894531 19.316406 C 71.710938 19.113281 71.515625 18.921875 71.316406 18.738281 C 67.652344 14.769531 61.503906 13.90625 51.671875 14.773438 L 38.628906 15.933594 C 18.691406 17.667969 14.261719 23.746094 15.496094 47.179688 Z M 23.617188 214.136719 " fill-opacity="1" fill-rule="nonzero"/><path fill="#ffbf00" d="M 116.398438 235.257812 L 49.703125 241.046875 C 30.015625 242.78125 24.847656 237.285156 23.617188 214.136719 L 15.496094 47.179688 C 14.269531 23.746094 18.699219 17.667969 38.632812 15.933594 L 51.675781 14.773438 C 71.367188 13.039062 76.289062 18.246094 76.042969 41.394531 L 74.566406 180.574219 L 114.679688 176.8125 C 134.367188 175.074219 139.539062 180.28125 140.03125 203.429688 C 140.769531 227.738281 136.339844 233.523438 116.40625 235.257812 Z M 116.398438 235.257812 " fill-opacity="1" fill-rule="nonzero"/><g clip-path="url(#71d288b81b)"><g transform="matrix(1, 0, 0, 1, 148, 110)"><g clip-path="url(#2a53406de9)"><g fill="#023278" fill-opacity="1"><g transform="translate(15.65683, 129.552984)"><g><path d="M 47.402344 17.289062 C 36.429688 17.289062 26.597656 15.050781 17.902344 10.578125 C 8.902344 5.949219 1.832031 -0.523438 -3.316406 -8.839844 C -8.5 -17.214844 -11.09375 -26.707031 -11.09375 -37.316406 C -11.09375 -47.605469 -8.824219 -56.800781 -4.28125 -64.894531 C 0.371094 -73.191406 6.898438 -79.65625 15.296875 -84.292969 C 23.46875 -88.800781 32.726562 -91.054688 43.078125 -91.054688 C 53.25 -91.054688 62.277344 -88.867188 70.164062 -84.492188 C 78.226562 -80.023438 84.53125 -73.816406 89.078125 -65.871094 C 93.566406 -58.035156 95.8125 -49.140625 95.8125 -39.1875 C 95.8125 -37.128906 95.675781 -35.050781 95.402344 -32.949219 C 95.140625 -30.90625 94.796875 -29.035156 94.371094 -27.339844 L 91.644531 -16.425781 L 25.933594 -16.425781 L 25.933594 -30.832031 L 40.226562 -32.652344 C 40.328125 -31.859375 40.515625 -31.214844 40.796875 -30.714844 C 41.050781 -30.261719 41.445312 -29.820312 41.984375 -29.398438 C 43.449219 -28.242188 45.542969 -27.664062 48.265625 -27.664062 C 50.753906 -27.664062 53.054688 -28.152344 55.164062 -29.132812 C 56.886719 -29.929688 58.066406 -30.78125 58.703125 -31.679688 L 67.375 -43.894531 L 102 -17.230469 L 95.300781 -6.203125 C 90.84375 1.125 84.140625 6.945312 75.1875 11.253906 C 66.828125 15.277344 57.5625 17.289062 47.402344 17.289062 Z M 47.402344 -11.527344 C 53.183594 -11.527344 58.28125 -12.589844 62.691406 -14.710938 C 66.515625 -16.550781 69.175781 -18.703125 70.675781 -21.171875 L 82.988281 -13.6875 L 74.195312 -2.273438 L 61.664062 -11.925781 L 70.453125 -23.339844 L 82.203125 -15.003906 C 78.613281 -9.945312 73.644531 -5.941406 67.300781 -2.996094 C 61.339844 -0.230469 54.996094 1.152344 48.265625 1.152344 C 38.882812 1.152344 30.84375 -1.488281 24.148438 -6.765625 C 20.601562 -9.558594 17.769531 -12.855469 15.648438 -16.648438 C 13.546875 -20.402344 12.214844 -24.523438 11.640625 -29.011719 L 9.578125 -45.238281 L 80.394531 -45.238281 L 80.394531 -30.832031 L 66.417969 -34.328125 C 66.570312 -34.933594 66.707031 -35.707031 66.824219 -36.636719 C 66.9375 -37.515625 66.996094 -38.363281 66.996094 -39.1875 C 66.996094 -44.027344 66.023438 -48.148438 64.074219 -51.550781 C 62.1875 -54.84375 59.558594 -57.425781 56.1875 -59.292969 C 52.648438 -61.257812 48.277344 -62.242188 43.078125 -62.242188 C 37.675781 -62.242188 33.058594 -61.183594 29.222656 -59.0625 C 25.617188 -57.074219 22.824219 -54.316406 20.851562 -50.796875 C 18.765625 -47.078125 17.722656 -42.585938 17.722656 -37.316406 C 17.722656 -32.171875 18.875 -27.734375 21.183594 -24.007812 C 23.527344 -20.222656 26.828125 -17.234375 31.085938 -15.042969 C 35.644531 -12.699219 41.082031 -11.527344 47.402344 -11.527344 Z M 25.789062 -57.917969 L 59.070312 -57.917969 L 59.070312 -43.511719 L 44.699219 -42.503906 C 44.605469 -43.816406 44.40625 -44.875 44.097656 -45.679688 C 43.957031 -46.054688 43.8125 -46.320312 43.660156 -46.480469 C 43.621094 -46.523438 43.597656 -46.546875 43.589844 -46.550781 C 43.625 -46.527344 43.664062 -46.503906 43.707031 -46.488281 C 43.628906 -46.519531 43.417969 -46.535156 43.078125 -46.535156 C 42.691406 -46.535156 42.417969 -46.503906 42.257812 -46.4375 C 42.148438 -46.390625 42.003906 -46.273438 41.820312 -46.085938 C 40.921875 -45.15625 40.339844 -43.683594 40.078125 -41.660156 L 25.789062 -43.511719 Z M 25.789062 -29.101562 L 9.394531 -29.101562 L 11.5 -45.363281 C 12.585938 -53.714844 15.796875 -60.640625 21.140625 -66.148438 C 24.078125 -69.179688 27.425781 -71.476562 31.1875 -73.039062 C 34.890625 -74.582031 38.855469 -75.351562 43.078125 -75.351562 C 47.253906 -75.351562 51.148438 -74.601562 54.765625 -73.097656 C 58.523438 -71.535156 61.828125 -69.230469 64.683594 -66.1875 C 69.898438 -60.625 72.820312 -53.402344 73.445312 -44.519531 L 74.523438 -29.101562 Z M 25.789062 -29.101562 "/></g></g></g><g fill="#023278" fill-opacity="1"><g transform="translate(101.382485, 129.552984)"><g><path d="M 54.027344 -90.335938 C 59.546875 -90.335938 64.601562 -89.484375 69.195312 -87.78125 C 74.195312 -85.925781 78.527344 -83.125 82.191406 -79.375 C 89.253906 -72.15625 92.785156 -62.652344 92.785156 -50.859375 L 92.785156 14.40625 L 41.925781 14.40625 L 41.925781 -44.085938 C 41.925781 -44.640625 41.894531 -45.007812 41.835938 -45.1875 C 41.933594 -44.890625 42.128906 -44.585938 42.417969 -44.273438 C 42.796875 -43.859375 43.253906 -43.546875 43.78125 -43.339844 C 43.941406 -43.273438 44.078125 -43.234375 44.191406 -43.214844 C 44.152344 -43.21875 44.070312 -43.222656 43.941406 -43.222656 C 43.429688 -43.222656 43.058594 -43.179688 42.835938 -43.089844 C 42.78125 -43.066406 42.707031 -43.007812 42.613281 -42.914062 C 42.347656 -42.644531 42.214844 -41.929688 42.214844 -40.773438 L 42.214844 14.40625 L -8.644531 14.40625 L -8.644531 -88.175781 L 35.628906 -88.175781 L 41.648438 -63.828125 L 27.664062 -60.367188 L 27.664062 -74.777344 L 27.808594 -74.777344 L 27.808594 -60.367188 L 15.121094 -67.199219 C 19.058594 -74.511719 24.386719 -80.191406 31.109375 -84.238281 C 37.859375 -88.304688 45.5 -90.335938 54.027344 -90.335938 Z M 54.027344 -61.519531 C 50.839844 -61.519531 48.152344 -60.863281 45.972656 -59.550781 C 43.761719 -58.21875 41.933594 -56.214844 40.492188 -53.539062 L 36.414062 -45.960938 L 16.382812 -45.960938 L 10.363281 -70.308594 L 24.347656 -73.765625 L 24.347656 -59.359375 L 5.761719 -59.359375 L 5.761719 -73.765625 L 20.171875 -73.765625 L 20.171875 0 L 5.761719 0 L 5.761719 -14.40625 L 27.808594 -14.40625 L 27.808594 0 L 13.398438 0 L 13.398438 -40.773438 C 13.398438 -45.042969 14.078125 -49.003906 15.429688 -52.660156 C 16.902344 -56.632812 19.121094 -60.121094 22.078125 -63.128906 C 25.007812 -66.105469 28.378906 -68.351562 32.191406 -69.867188 C 35.832031 -71.3125 39.75 -72.039062 43.941406 -72.039062 C 47.699219 -72.039062 51.1875 -71.398438 54.40625 -70.121094 C 57.960938 -68.710938 61.03125 -66.597656 63.625 -63.785156 C 68.367188 -58.625 70.742188 -52.058594 70.742188 -44.085938 L 70.742188 0 L 56.332031 0 L 56.332031 -14.40625 L 78.378906 -14.40625 L 78.378906 0 L 63.96875 0 L 63.96875 -50.859375 C 63.96875 -54.816406 63.179688 -57.605469 61.59375 -59.226562 C 60.097656 -60.753906 57.574219 -61.519531 54.027344 -61.519531 Z M 54.027344 -61.519531 "/></g></g></g><g fill="#023278" fill-opacity="1"><g transform="translate(185.091082, 129.552984)"><g><path d="M 38.757812 17 C 30.410156 17 22.769531 15.71875 15.828125 13.15625 C 8.128906 10.3125 1.855469 6.03125 -2.992188 0.3125 C -8.246094 -5.878906 -11.175781 -13.285156 -11.777344 -21.898438 L -12.746094 -35.675781 L 34.675781 -41.023438 L 36.09375 -26.46875 C 36.074219 -26.664062 35.980469 -26.90625 35.804688 -27.195312 C 35.71875 -27.339844 35.628906 -27.457031 35.539062 -27.550781 C 35.527344 -27.566406 35.519531 -27.574219 35.515625 -27.574219 C 35.542969 -27.550781 35.582031 -27.523438 35.628906 -27.488281 C 36.578125 -26.835938 38.050781 -26.511719 40.054688 -26.511719 C 41.652344 -26.511719 42.789062 -26.703125 43.46875 -27.085938 C 43.011719 -26.828125 42.523438 -26.324219 41.996094 -25.570312 C 40.988281 -24.125 40.484375 -22.519531 40.484375 -20.746094 C 40.484375 -18.992188 40.972656 -17.367188 41.949219 -15.875 C 42.585938 -14.902344 43.277344 -14.195312 44.023438 -13.75 C 43.859375 -13.847656 43.398438 -14.011719 42.640625 -14.238281 C 41.332031 -14.628906 39.679688 -14.992188 37.683594 -15.324219 L 26.855469 -17.035156 C 15.871094 -18.84375 7.507812 -22.3125 1.773438 -27.441406 C -1.753906 -30.601562 -4.390625 -34.410156 -6.140625 -38.867188 C -7.714844 -42.886719 -8.5 -47.316406 -8.5 -52.15625 C -8.5 -58.152344 -7.269531 -63.636719 -4.804688 -68.605469 C -2.304688 -73.640625 1.34375 -77.929688 6.144531 -81.472656 C 14.542969 -87.667969 25.03125 -90.769531 37.605469 -90.769531 C 45.277344 -90.769531 52.289062 -89.523438 58.636719 -87.039062 C 65.417969 -84.382812 71.035156 -80.570312 75.488281 -75.609375 C 80.394531 -70.136719 83.335938 -63.769531 84.300781 -56.507812 L 86.183594 -42.40625 L 38.320312 -35.410156 L 36.941406 -50.5625 C 36.996094 -49.996094 37.199219 -49.410156 37.550781 -48.808594 C 37.871094 -48.269531 38.21875 -47.867188 38.589844 -47.609375 C 38.570312 -47.621094 38.507812 -47.644531 38.402344 -47.675781 C 38.027344 -47.78125 37.519531 -47.832031 36.882812 -47.832031 C 36.453125 -47.832031 36.140625 -47.808594 35.949219 -47.753906 C 36.070312 -47.789062 36.21875 -47.867188 36.402344 -47.992188 C 36.871094 -48.3125 37.332031 -48.832031 37.785156 -49.546875 C 38.550781 -50.761719 38.96875 -52.09375 39.03125 -53.546875 L 24.636719 -54.171875 L 39.042969 -54.171875 C 39.042969 -56.074219 38.53125 -57.824219 37.507812 -59.421875 C 36.851562 -60.445312 36.117188 -61.214844 35.304688 -61.730469 C 35.210938 -61.789062 35.128906 -61.835938 35.058594 -61.875 L 35.070312 -61.871094 C 35.246094 -61.792969 35.488281 -61.707031 35.800781 -61.609375 C 36.785156 -61.296875 38.066406 -61.003906 39.640625 -60.730469 L 50.550781 -58.863281 C 62.445312 -56.78125 71.472656 -53.15625 77.625 -47.992188 C 81.453125 -44.78125 84.339844 -40.925781 86.285156 -36.429688 C 88.121094 -32.191406 89.039062 -27.539062 89.039062 -22.476562 C 89.039062 -13.992188 86.460938 -6.554688 81.300781 -0.167969 C 76.65625 5.585938 70.4375 9.957031 62.648438 12.945312 C 55.609375 15.648438 47.644531 17 38.757812 17 Z M 38.757812 -11.8125 C 44.082031 -11.8125 48.605469 -12.527344 52.324219 -13.953125 C 55.292969 -15.09375 57.480469 -16.535156 58.886719 -18.273438 C 59.777344 -19.378906 60.222656 -20.78125 60.222656 -22.476562 C 60.222656 -23.558594 60.097656 -24.394531 59.84375 -24.984375 C 59.699219 -25.3125 59.453125 -25.625 59.101562 -25.917969 C 58.253906 -26.628906 56.902344 -27.339844 55.042969 -28.046875 C 52.527344 -29.003906 49.410156 -29.8125 45.691406 -30.460938 L 34.703125 -32.34375 C 28.402344 -33.4375 23.457031 -35.121094 19.875 -37.394531 C 17.09375 -39.160156 14.882812 -41.320312 13.242188 -43.878906 C 11.234375 -47.015625 10.230469 -50.449219 10.230469 -54.171875 L 10.230469 -54.484375 L 10.242188 -54.796875 C 10.402344 -58.460938 11.464844 -61.847656 13.433594 -64.957031 C 15.089844 -67.570312 17.300781 -69.828125 20.078125 -71.734375 C 24.839844 -75.011719 30.441406 -76.648438 36.882812 -76.648438 C 43.835938 -76.648438 49.894531 -74.851562 55.058594 -71.253906 C 58.121094 -69.121094 60.554688 -66.523438 62.363281 -63.460938 C 64.207031 -60.339844 65.300781 -56.910156 65.640625 -53.171875 L 51.292969 -51.867188 L 49.207031 -66.125 L 67.9375 -68.859375 L 70.019531 -54.605469 L 55.738281 -52.699219 C 55.554688 -54.085938 54.988281 -55.308594 54.039062 -56.367188 C 52.628906 -57.933594 50.660156 -59.214844 48.125 -60.207031 C 45.15625 -61.371094 41.648438 -61.953125 37.605469 -61.953125 C 31.351562 -61.953125 26.566406 -60.730469 23.25 -58.28125 C 22.191406 -57.5 21.445312 -56.675781 21.011719 -55.804688 C 20.546875 -54.867188 20.316406 -53.652344 20.316406 -52.15625 C 20.316406 -50.398438 20.539062 -49.320312 20.988281 -48.917969 C 21.519531 -48.441406 22.453125 -47.945312 23.789062 -47.421875 C 25.804688 -46.636719 28.324219 -45.996094 31.351562 -45.496094 L 42.421875 -43.746094 C 49.378906 -42.585938 54.804688 -40.855469 58.703125 -38.546875 C 61.804688 -36.710938 64.261719 -34.410156 66.070312 -31.636719 C 68.222656 -28.339844 69.300781 -24.710938 69.300781 -20.746094 C 69.300781 -16.480469 68.078125 -12.589844 65.628906 -9.082031 C 63.660156 -6.261719 61.011719 -3.90625 57.675781 -2.015625 C 52.589844 0.863281 46.714844 2.304688 40.054688 2.304688 C 32.066406 2.304688 25.136719 0.277344 19.261719 -3.773438 C 15.855469 -6.125 13.144531 -8.972656 11.128906 -12.316406 C 9.058594 -15.75 7.820312 -19.535156 7.414062 -23.671875 L 21.753906 -25.070312 L 23.371094 -10.753906 L 4.207031 -8.589844 L 2.59375 -22.90625 L 16.964844 -23.917969 C 17.128906 -21.582031 17.800781 -19.71875 18.984375 -18.324219 C 20.570312 -16.453125 22.847656 -14.96875 25.8125 -13.875 C 29.53125 -12.5 33.847656 -11.8125 38.757812 -11.8125 Z M 38.757812 -11.8125 "/></g></g></g><g fill="#023278" fill-opacity="1"><g transform="translate(262.172126, 129.552984)"><g><path d="M 17.289062 -69.445312 C 13.652344 -69.445312 10.246094 -70.03125 7.074219 -71.199219 C 3.636719 -72.472656 0.59375 -74.375 -2.054688 -76.917969 C -4.761719 -79.515625 -6.796875 -82.539062 -8.167969 -85.992188 C -9.445312 -89.214844 -10.085938 -92.679688 -10.085938 -96.386719 C -10.085938 -100.117188 -9.457031 -103.59375 -8.199219 -106.816406 C -6.828125 -110.324219 -4.78125 -113.382812 -2.054688 -116 C 0.59375 -118.542969 3.636719 -120.445312 7.074219 -121.71875 C 10.246094 -122.886719 13.652344 -123.472656 17.289062 -123.472656 C 20.949219 -123.472656 24.367188 -122.894531 27.542969 -121.742188 C 31.035156 -120.472656 34.113281 -118.558594 36.777344 -116 C 39.503906 -113.382812 41.550781 -110.324219 42.917969 -106.816406 C 44.179688 -103.59375 44.808594 -100.117188 44.808594 -96.386719 C 44.808594 -92.679688 44.167969 -89.214844 42.890625 -85.992188 C 41.519531 -82.539062 39.484375 -79.515625 36.777344 -76.917969 C 34.113281 -74.359375 31.035156 -72.445312 27.542969 -71.175781 C 24.367188 -70.023438 20.949219 -69.445312 17.289062 -69.445312 Z M 17.289062 -98.261719 C 17.5 -98.261719 17.667969 -98.269531 17.792969 -98.289062 L 17.808594 -98.292969 C 17.777344 -98.285156 17.738281 -98.273438 17.695312 -98.257812 C 17.375 -98.140625 17.082031 -97.957031 16.820312 -97.703125 C 16.515625 -97.410156 16.277344 -97.050781 16.109375 -96.621094 C 16.046875 -96.472656 16.007812 -96.339844 15.988281 -96.226562 L 15.988281 -96.222656 C 15.992188 -96.269531 15.992188 -96.320312 15.992188 -96.386719 C 15.992188 -96.519531 15.988281 -96.609375 15.980469 -96.660156 C 15.996094 -96.574219 16.027344 -96.464844 16.078125 -96.332031 C 16.25 -95.898438 16.496094 -95.527344 16.820312 -95.214844 C 17.082031 -94.960938 17.375 -94.777344 17.695312 -94.660156 C 17.738281 -94.644531 17.777344 -94.632812 17.808594 -94.625 L 17.792969 -94.628906 C 17.667969 -94.648438 17.5 -94.65625 17.289062 -94.65625 C 17.117188 -94.65625 16.988281 -94.652344 16.894531 -94.636719 C 16.925781 -94.640625 16.980469 -94.65625 17.058594 -94.683594 C 17.375 -94.804688 17.65625 -94.980469 17.902344 -95.214844 C 18.226562 -95.527344 18.472656 -95.898438 18.644531 -96.332031 C 18.695312 -96.464844 18.726562 -96.574219 18.742188 -96.660156 C 18.734375 -96.609375 18.730469 -96.519531 18.730469 -96.386719 C 18.730469 -96.320312 18.730469 -96.269531 18.734375 -96.222656 L 18.734375 -96.226562 C 18.714844 -96.339844 18.675781 -96.472656 18.613281 -96.621094 C 18.445312 -97.050781 18.207031 -97.410156 17.902344 -97.703125 C 17.65625 -97.9375 17.375 -98.113281 17.058594 -98.234375 C 16.980469 -98.261719 16.925781 -98.277344 16.894531 -98.28125 C 16.988281 -98.265625 17.117188 -98.261719 17.289062 -98.261719 Z M -8.066406 0 L -8.066406 -88.175781 L 42.648438 -88.175781 L 42.648438 14.40625 L -8.066406 14.40625 Z M 20.746094 0 L 6.339844 0 L 6.339844 -14.40625 L 28.238281 -14.40625 L 28.238281 0 L 13.832031 0 L 13.832031 -73.765625 L 28.238281 -73.765625 L 28.238281 -59.359375 L 6.339844 -59.359375 L 6.339844 -73.765625 L 20.746094 -73.765625 Z M 20.746094 0 "/></g></g></g><g fill="#023278" fill-opacity="1"><g transform="translate(296.894646, 129.552984)"><g><path d="M 28.527344 16.570312 C 17.550781 16.570312 8.289062 13.636719 0.742188 7.777344 C -3.5 4.480469 -6.726562 0.554688 -8.941406 -4.003906 C -11.144531 -8.539062 -12.246094 -13.496094 -12.246094 -18.875 C -12.246094 -24.367188 -11.03125 -29.476562 -8.601562 -34.207031 C -6.28125 -38.730469 -2.929688 -42.71875 1.445312 -46.175781 C 9.105469 -52.222656 19.84375 -55.96875 33.660156 -57.410156 L 47.683594 -59.109375 C 46.546875 -58.984375 45.378906 -58.402344 44.179688 -57.367188 C 43.039062 -56.382812 42.164062 -55.1875 41.554688 -53.773438 C 41.035156 -52.566406 40.773438 -51.351562 40.773438 -50.136719 C 40.773438 -49.496094 40.953125 -48.808594 41.308594 -48.078125 C 41.671875 -47.335938 42.121094 -46.761719 42.652344 -46.355469 C 42.808594 -46.234375 42.933594 -46.15625 43.027344 -46.128906 C 42.761719 -46.207031 42.347656 -46.25 41.78125 -46.25 C 41.316406 -46.25 40.984375 -46.210938 40.789062 -46.140625 C 40.789062 -46.140625 40.796875 -46.144531 40.804688 -46.148438 C 40.800781 -46.144531 40.78125 -46.128906 40.753906 -46.105469 C 40.441406 -45.804688 40.277344 -45.589844 40.261719 -45.460938 L 38.679688 -30.421875 L -11.152344 -38.117188 L -9.878906 -51.636719 C -9.132812 -59.53125 -6.332031 -66.578125 -1.472656 -72.78125 C 3.1875 -78.734375 9.363281 -83.324219 17.042969 -86.546875 C 24.207031 -89.554688 32.261719 -91.054688 41.207031 -91.054688 C 55.519531 -91.054688 67.230469 -87.285156 76.332031 -79.746094 C 81.289062 -75.640625 85.03125 -70.730469 87.554688 -65.023438 C 89.984375 -59.53125 91.199219 -53.464844 91.199219 -46.824219 L 91.199219 -18.296875 C 91.199219 -18.519531 91.152344 -18.835938 91.054688 -19.25 C 90.785156 -20.394531 90.273438 -21.507812 89.515625 -22.582031 C 88.375 -24.210938 86.894531 -25.453125 85.074219 -26.316406 C 83.589844 -27.023438 82.078125 -27.375 80.539062 -27.375 C 79.03125 -27.375 77.644531 -27.011719 76.382812 -26.285156 C 75.71875 -25.90625 75.246094 -25.53125 74.957031 -25.160156 L 89.730469 -44.039062 L 108.671875 -1.417969 L 101.675781 5.578125 C 97.847656 9.40625 93.09375 12.25 87.414062 14.117188 C 82.449219 15.753906 77.515625 16.570312 72.613281 16.570312 C 64.96875 16.570312 58.273438 14.394531 52.53125 10.042969 C 49.5625 7.792969 47.15625 5.214844 45.316406 2.304688 C 43.300781 -0.875 42.027344 -4.328125 41.496094 -8.046875 L 41.460938 -8.269531 L 41.148438 -11.085938 L 55.46875 -12.679688 L 55.46875 1.730469 L 55.324219 1.730469 L 55.324219 -12.679688 L 67.984375 -5.800781 C 64.320312 0.941406 59.046875 6.355469 52.164062 10.445312 C 45.285156 14.527344 37.40625 16.570312 28.527344 16.570312 Z M 28.527344 -12.246094 C 32.132812 -12.246094 35.109375 -12.941406 37.453125 -14.332031 C 39.789062 -15.722656 41.527344 -17.464844 42.667969 -19.558594 L 46.757812 -27.085938 L 68.363281 -27.085938 L 70.078125 -11.675781 L 55.757812 -10.085938 L 70.019531 -12.121094 C 69.96875 -12.480469 69.847656 -12.8125 69.660156 -13.113281 C 69.617188 -13.175781 69.589844 -13.214844 69.578125 -13.230469 C 69.65625 -13.148438 69.773438 -13.046875 69.933594 -12.925781 C 70.53125 -12.472656 71.421875 -12.246094 72.613281 -12.246094 C 74.4375 -12.246094 76.371094 -12.582031 78.417969 -13.253906 C 79.746094 -13.691406 80.710938 -14.207031 81.300781 -14.796875 L 91.488281 -4.609375 L 78.324219 1.242188 L 73.136719 -10.429688 L 86.300781 -16.28125 L 97.648438 -7.402344 C 95.628906 -4.824219 93.328125 -2.789062 90.746094 -1.304688 C 87.5625 0.527344 84.160156 1.441406 80.539062 1.441406 C 77.75 1.441406 75.148438 0.867188 72.726562 -0.28125 C 69.96875 -1.589844 67.707031 -3.5 65.941406 -6.015625 C 63.570312 -9.390625 62.386719 -13.484375 62.386719 -18.296875 L 62.386719 -46.824219 C 62.386719 -49.40625 61.992188 -51.585938 61.203125 -53.371094 C 60.507812 -54.9375 59.425781 -56.335938 57.949219 -57.558594 C 54.179688 -60.679688 48.597656 -62.242188 41.207031 -62.242188 C 36.128906 -62.242188 31.789062 -61.488281 28.195312 -59.976562 C 25.121094 -58.6875 22.792969 -57.03125 21.210938 -55.015625 C 19.828125 -53.246094 19.027344 -51.21875 18.808594 -48.929688 L 4.464844 -50.28125 L 6.664062 -64.523438 L 28.132812 -61.207031 L 25.933594 -46.96875 L 11.605469 -48.476562 C 12.359375 -55.648438 15.460938 -61.820312 20.910156 -66.996094 C 23.765625 -69.707031 27.019531 -71.75 30.671875 -73.121094 C 34.128906 -74.414062 37.832031 -75.0625 41.78125 -75.0625 C 48.988281 -75.0625 55.132812 -73.105469 60.21875 -69.195312 C 63.246094 -66.867188 65.566406 -64.058594 67.179688 -60.769531 C 68.785156 -57.496094 69.589844 -53.953125 69.589844 -50.136719 C 69.589844 -47.386719 69.0625 -44.792969 68.015625 -42.359375 C 66.875 -39.722656 65.210938 -37.457031 63.011719 -35.5625 C 59.703125 -32.699219 55.746094 -31.015625 51.152344 -30.503906 L 36.648438 -28.75 C 32.164062 -28.28125 28.347656 -27.527344 25.207031 -26.484375 C 22.679688 -25.648438 20.710938 -24.671875 19.300781 -23.558594 C 18.203125 -22.691406 17.445312 -21.851562 17.03125 -21.046875 C 16.722656 -20.445312 16.570312 -19.722656 16.570312 -18.875 C 16.570312 -17.914062 16.703125 -17.15625 16.976562 -16.597656 C 17.234375 -16.066406 17.714844 -15.527344 18.417969 -14.980469 C 20.765625 -13.15625 24.136719 -12.246094 28.527344 -12.246094 Z M 36.882812 -27.375 C 38.214844 -27.375 39.167969 -27.648438 39.742188 -28.203125 C 39.949219 -28.398438 40.085938 -28.582031 40.15625 -28.746094 C 40.277344 -29.046875 40.339844 -29.503906 40.339844 -30.113281 L 40.339844 -33.136719 L 54.75 -33.136719 L 56.355469 -18.820312 L 42.238281 -17.234375 C 39.976562 -16.988281 38.179688 -16.671875 36.851562 -16.28125 C 36.464844 -16.167969 36.175781 -16.066406 35.984375 -15.980469 C 36.105469 -16.035156 36.285156 -16.15625 36.523438 -16.335938 C 36.890625 -16.613281 37.261719 -17.082031 37.632812 -17.734375 C 38.285156 -18.886719 38.613281 -20.128906 38.613281 -21.46875 C 38.613281 -22.835938 38.25 -24.132812 37.523438 -25.367188 C 36.996094 -26.269531 36.402344 -26.933594 35.742188 -27.367188 C 35.660156 -27.425781 35.578125 -27.46875 35.503906 -27.5 L 35.527344 -27.5 C 35.84375 -27.414062 36.296875 -27.375 36.882812 -27.375 Z M 36.882812 1.441406 C 30.351562 1.441406 24.679688 -0.144531 19.871094 -3.320312 C 16.8125 -5.339844 14.417969 -7.820312 12.6875 -10.757812 C 10.761719 -14.035156 9.796875 -17.601562 9.796875 -21.46875 C 9.796875 -25.207031 10.722656 -28.707031 12.578125 -31.96875 C 14.152344 -34.738281 16.320312 -37.175781 19.089844 -39.277344 C 23.609375 -42.714844 30.253906 -44.910156 39.023438 -45.871094 L 69.15625 -49.253906 L 69.15625 -30.113281 C 69.15625 -25.726562 68.378906 -21.628906 66.820312 -17.828125 C 65.207031 -13.886719 62.824219 -10.40625 59.667969 -7.386719 C 56.570312 -4.417969 53.03125 -2.1875 49.054688 -0.691406 C 45.28125 0.730469 41.226562 1.441406 36.882812 1.441406 Z M 36.882812 1.441406 "/></g></g></g><g fill="#023278" fill-opacity="1"><g transform="translate(388.3834, 129.552984)"><g><path d="M 17.289062 15.992188 C 13.652344 15.992188 10.238281 15.386719 7.039062 14.171875 C 3.660156 12.886719 0.652344 10.976562 -1.984375 8.445312 C -4.699219 5.835938 -6.746094 2.8125 -8.128906 -0.628906 C -9.433594 -3.875 -10.085938 -7.363281 -10.085938 -11.09375 C -10.085938 -14.804688 -9.421875 -18.28125 -8.097656 -21.523438 C -6.71875 -24.914062 -4.679688 -27.898438 -1.984375 -30.488281 C 0.652344 -33.023438 3.660156 -34.929688 7.039062 -36.214844 C 10.238281 -37.429688 13.652344 -38.035156 17.289062 -38.035156 C 20.949219 -38.035156 24.378906 -37.4375 27.578125 -36.242188 C 31.007812 -34.957031 34.050781 -33.039062 36.707031 -30.488281 C 39.402344 -27.898438 41.441406 -24.914062 42.820312 -21.523438 C 44.144531 -18.28125 44.808594 -14.804688 44.808594 -11.09375 C 44.808594 -7.363281 44.15625 -3.875 42.851562 -0.628906 C 41.46875 2.8125 39.421875 5.835938 36.707031 8.445312 C 34.050781 10.996094 31.007812 12.914062 27.578125 14.195312 C 24.378906 15.394531 20.949219 15.992188 17.289062 15.992188 Z M 17.289062 -12.824219 C 17.445312 -12.824219 17.566406 -12.828125 17.648438 -12.84375 C 17.613281 -12.835938 17.558594 -12.820312 17.480469 -12.792969 C 17.195312 -12.683594 16.949219 -12.53125 16.746094 -12.335938 C 16.480469 -12.082031 16.269531 -11.757812 16.113281 -11.367188 C 16.050781 -11.21875 16.011719 -11.085938 15.992188 -10.96875 L 15.988281 -10.953125 C 15.992188 -10.988281 15.992188 -11.035156 15.992188 -11.09375 L 16 -11.101562 C 16.027344 -10.960938 16.074219 -10.804688 16.140625 -10.640625 C 16.300781 -10.253906 16.5 -9.945312 16.746094 -9.710938 C 16.949219 -9.511719 17.195312 -9.359375 17.480469 -9.25 C 17.558594 -9.222656 17.613281 -9.207031 17.648438 -9.199219 C 17.566406 -9.214844 17.445312 -9.222656 17.289062 -9.222656 C 17.171875 -9.222656 17.089844 -9.214844 17.042969 -9.207031 C 17.101562 -9.21875 17.179688 -9.242188 17.273438 -9.277344 C 17.554688 -9.382812 17.789062 -9.527344 17.976562 -9.710938 C 18.222656 -9.945312 18.421875 -10.253906 18.582031 -10.640625 C 18.648438 -10.804688 18.695312 -10.960938 18.722656 -11.101562 L 18.730469 -11.09375 C 18.730469 -11.035156 18.730469 -10.988281 18.734375 -10.953125 L 18.730469 -10.96875 C 18.710938 -11.085938 18.671875 -11.21875 18.609375 -11.367188 C 18.453125 -11.757812 18.242188 -12.082031 17.976562 -12.335938 C 17.789062 -12.515625 17.554688 -12.660156 17.273438 -12.765625 C 17.179688 -12.800781 17.101562 -12.824219 17.042969 -12.835938 C 17.089844 -12.828125 17.171875 -12.824219 17.289062 -12.824219 Z M 17.289062 -12.824219 "/></g></g></g><g fill="#febe00" fill-opacity="1"><g transform="translate(15.65683, 129.552984)"><g><path d="M 47.40625 2.875 C 38.757812 2.875 31.117188 1.171875 24.484375 -2.234375 C 17.859375 -5.640625 12.671875 -10.367188 8.921875 -16.421875 C 5.179688 -22.472656 3.3125 -29.4375 3.3125 -37.3125 C 3.3125 -45.09375 4.96875 -51.9375 8.28125 -57.84375 C 11.59375 -63.75 16.25 -68.359375 22.25 -71.671875 C 28.257812 -74.992188 35.203125 -76.65625 43.078125 -76.65625 C 50.765625 -76.65625 57.460938 -75.066406 63.171875 -71.890625 C 68.890625 -68.722656 73.359375 -64.328125 76.578125 -58.703125 C 79.796875 -53.085938 81.40625 -46.582031 81.40625 -39.1875 C 81.40625 -37.75 81.304688 -36.285156 81.109375 -34.796875 C 80.921875 -33.304688 80.679688 -31.984375 80.390625 -30.828125 L 25.9375 -30.828125 C 26.601562 -25.546875 28.976562 -21.296875 33.0625 -18.078125 C 37.144531 -14.859375 42.210938 -13.25 48.265625 -13.25 C 52.878906 -13.25 57.203125 -14.1875 61.234375 -16.0625 C 65.265625 -17.9375 68.335938 -20.363281 70.453125 -23.34375 L 82.984375 -13.6875 C 80.003906 -8.789062 75.320312 -4.804688 68.9375 -1.734375 C 62.550781 1.335938 55.375 2.875 47.40625 2.875 Z M 25.796875 -43.515625 L 59.078125 -43.515625 C 58.691406 -48.984375 57.054688 -53.253906 54.171875 -56.328125 C 51.285156 -59.398438 47.585938 -60.9375 43.078125 -60.9375 C 38.460938 -60.9375 34.59375 -59.328125 31.46875 -56.109375 C 28.351562 -52.898438 26.460938 -48.703125 25.796875 -43.515625 Z M 25.796875 -43.515625 "/></g></g></g><g fill="#febe00" fill-opacity="1"><g transform="translate(101.382485, 129.552984)"><g><path d="M 54.03125 -75.921875 C 61.613281 -75.921875 67.566406 -73.710938 71.890625 -69.296875 C 76.210938 -64.878906 78.375 -58.734375 78.375 -50.859375 L 78.375 0 L 56.328125 0 L 56.328125 -44.09375 C 56.328125 -48.3125 55.222656 -51.617188 53.015625 -54.015625 C 50.804688 -56.421875 47.78125 -57.625 43.9375 -57.625 C 39.238281 -57.625 35.375 -56.085938 32.34375 -53.015625 C 29.320312 -49.941406 27.8125 -45.863281 27.8125 -40.78125 L 27.8125 0 L 5.765625 0 L 5.765625 -73.765625 L 24.34375 -73.765625 L 27.65625 -60.375 L 27.8125 -60.375 C 30.5 -65.363281 34.070312 -69.203125 38.53125 -71.890625 C 43 -74.578125 48.164062 -75.921875 54.03125 -75.921875 Z M 54.03125 -75.921875 "/></g></g></g><g fill="#febe00" fill-opacity="1"><g transform="translate(185.091082, 129.552984)"><g><path d="M 38.75 2.59375 C 32.125 2.59375 26.144531 1.609375 20.8125 -0.359375 C 15.488281 -2.328125 11.21875 -5.207031 8 -9 C 4.78125 -12.800781 2.976562 -17.4375 2.59375 -22.90625 L 21.75 -25.0625 C 22.132812 -21.125 24.03125 -17.976562 27.4375 -15.625 C 30.851562 -13.28125 35.054688 -12.109375 40.046875 -12.109375 C 44.179688 -12.109375 47.6875 -12.921875 50.5625 -14.546875 C 53.445312 -16.179688 54.890625 -18.25 54.890625 -20.75 C 54.890625 -22.957031 53.710938 -24.753906 51.359375 -26.140625 C 49.003906 -27.535156 45.234375 -28.664062 40.046875 -29.53125 L 29.109375 -31.265625 C 20.941406 -32.609375 15.03125 -34.910156 11.375 -38.171875 C 7.726562 -41.441406 5.90625 -46.101562 5.90625 -52.15625 C 5.90625 -59.644531 8.832031 -65.550781 14.6875 -69.875 C 20.550781 -74.195312 28.191406 -76.359375 37.609375 -76.359375 C 43.460938 -76.359375 48.71875 -75.445312 53.375 -73.625 C 58.039062 -71.800781 61.835938 -69.253906 64.765625 -65.984375 C 67.691406 -62.722656 69.441406 -58.929688 70.015625 -54.609375 L 51.296875 -51.875 C 51.003906 -55.039062 49.515625 -57.554688 46.828125 -59.421875 C 44.140625 -61.296875 40.828125 -62.234375 36.890625 -62.234375 C 33.429688 -62.234375 30.546875 -61.441406 28.234375 -59.859375 C 25.929688 -58.273438 24.734375 -56.378906 24.640625 -54.171875 C 24.640625 -52.347656 25.625 -50.8125 27.59375 -49.5625 C 29.5625 -48.3125 32.753906 -47.300781 37.171875 -46.53125 L 48.125 -44.671875 C 57.4375 -43.035156 64.179688 -40.460938 68.359375 -36.953125 C 72.535156 -33.453125 74.625 -28.625 74.625 -22.46875 C 74.625 -17.382812 73.113281 -12.96875 70.09375 -9.21875 C 67.070312 -5.476562 62.867188 -2.570312 57.484375 -0.5 C 52.109375 1.5625 45.863281 2.59375 38.75 2.59375 Z M 38.75 2.59375 "/></g></g></g><g fill="#febe00" fill-opacity="1"><g transform="translate(262.172126, 129.552984)"><g><path d="M 17.296875 -83.859375 C 13.453125 -83.859375 10.328125 -85.007812 7.921875 -87.3125 C 5.523438 -89.613281 4.328125 -92.640625 4.328125 -96.390625 C 4.328125 -100.234375 5.523438 -103.304688 7.921875 -105.609375 C 10.328125 -107.910156 13.453125 -109.0625 17.296875 -109.0625 C 21.234375 -109.0625 24.398438 -107.910156 26.796875 -105.609375 C 29.203125 -103.304688 30.40625 -100.234375 30.40625 -96.390625 C 30.40625 -92.640625 29.203125 -89.613281 26.796875 -87.3125 C 24.398438 -85.007812 21.234375 -83.859375 17.296875 -83.859375 Z M 6.34375 0 L 6.34375 -73.765625 L 28.234375 -73.765625 L 28.234375 0 Z M 6.34375 0 "/></g></g></g><g fill="#febe00" fill-opacity="1"><g transform="translate(296.894646, 129.552984)"><g><path d="M 28.53125 2.15625 C 20.84375 2.15625 14.523438 0.238281 9.578125 -3.59375 C 4.628906 -7.4375 2.15625 -12.53125 2.15625 -18.875 C 2.15625 -25.21875 4.894531 -30.546875 10.375 -34.859375 C 15.851562 -39.179688 24.113281 -41.921875 35.15625 -43.078125 L 49.421875 -44.8125 C 51.148438 -45 52.539062 -45.546875 53.59375 -46.453125 C 54.65625 -47.367188 55.1875 -48.597656 55.1875 -50.140625 C 55.1875 -53.304688 53.9375 -55.847656 51.4375 -57.765625 C 48.9375 -59.691406 45.71875 -60.65625 41.78125 -60.65625 C 37.363281 -60.65625 33.710938 -59.285156 30.828125 -56.546875 C 27.953125 -53.804688 26.320312 -50.613281 25.9375 -46.96875 L 4.46875 -50.28125 C 4.945312 -55.375 6.742188 -59.910156 9.859375 -63.890625 C 12.984375 -67.878906 17.234375 -71.003906 22.609375 -73.265625 C 27.992188 -75.523438 34.191406 -76.65625 41.203125 -76.65625 C 52.054688 -76.65625 60.703125 -73.988281 67.140625 -68.65625 C 73.578125 -63.320312 76.796875 -56.046875 76.796875 -46.828125 L 76.796875 -18.296875 C 76.796875 -14.742188 78.046875 -12.96875 80.546875 -12.96875 C 82.648438 -12.96875 84.566406 -14.070312 86.296875 -16.28125 L 91.484375 -4.609375 C 89.273438 -2.398438 86.414062 -0.722656 82.90625 0.421875 C 79.40625 1.578125 75.972656 2.15625 72.609375 2.15625 C 68.191406 2.15625 64.398438 0.957031 61.234375 -1.4375 C 58.066406 -3.84375 56.242188 -6.722656 55.765625 -10.078125 L 55.46875 -12.671875 L 55.328125 -12.671875 C 52.921875 -8.253906 49.410156 -4.675781 44.796875 -1.9375 C 40.191406 0.789062 34.769531 2.15625 28.53125 2.15625 Z M 36.890625 -12.96875 C 42.078125 -12.96875 46.347656 -14.578125 49.703125 -17.796875 C 53.066406 -21.015625 54.75 -25.117188 54.75 -30.109375 L 54.75 -33.140625 L 40.625 -31.546875 C 34.476562 -30.878906 30.203125 -29.628906 27.796875 -27.796875 C 25.398438 -25.972656 24.203125 -23.863281 24.203125 -21.46875 C 24.203125 -18.96875 25.398438 -16.925781 27.796875 -15.34375 C 30.203125 -13.757812 33.234375 -12.96875 36.890625 -12.96875 Z M 36.890625 -12.96875 "/></g></g></g><g fill="#febe00" fill-opacity="1"><g transform="translate(388.3834, 129.552984)"><g><path d="M 17.296875 1.578125 C 13.546875 1.578125 10.445312 0.40625 8 -1.9375 C 5.550781 -4.289062 4.328125 -7.34375 4.328125 -11.09375 C 4.328125 -14.738281 5.550781 -17.738281 8 -20.09375 C 10.445312 -22.445312 13.546875 -23.625 17.296875 -23.625 C 21.128906 -23.625 24.269531 -22.445312 26.71875 -20.09375 C 29.175781 -17.738281 30.40625 -14.738281 30.40625 -11.09375 C 30.40625 -7.34375 29.175781 -4.289062 26.71875 -1.9375 C 24.269531 0.40625 21.128906 1.578125 17.296875 1.578125 Z M 17.296875 1.578125 "/></g></g></g></g></g></g></g></g></g></svg>